<?xml version="1.0" encoding="UTF-8" standalone="no"?>
<!-- Created with Inkscape (http://www.inkscape.org/) -->

<svg
   xmlns:dc="http://purl.org/dc/elements/1.1/"
   xmlns:cc="http://creativecommons.org/ns#"
   xmlns:rdf="http://www.w3.org/1999/02/22-rdf-syntax-ns#"
   xmlns:svg="http://www.w3.org/2000/svg"
   xmlns="http://www.w3.org/2000/svg"
   xmlns:sodipodi="http://sodipodi.sourceforge.net/DTD/sodipodi-0.dtd"
   xmlns:inkscape="http://www.inkscape.org/namespaces/inkscape"
   width="32"
   height="32"
   id="svg4898"
   version="1.1"
   inkscape:version="0.48.4 r9939"
   sodipodi:docname="ic_repeat.svg">
  <defs
     id="defs4900" />
  <sodipodi:namedview
     id="base"
     pagecolor="#000000"
     bordercolor="#666666"
     borderopacity="1.0"
     inkscape:pageopacity="0"
     inkscape:pageshadow="2"
     inkscape:zoom="3.959798"
     inkscape:cx="-93.001826"
     inkscape:cy="-3.7375619"
     inkscape:document-units="px"
     inkscape:current-layer="g5712"
     showgrid="false"
     fit-margin-top="0"
     fit-margin-left="0"
     fit-margin-right="0"
     fit-margin-bottom="0"
     inkscape:window-width="1920"
     inkscape:window-height="1145"
     inkscape:window-x="-2"
     inkscape:window-y="-3"
     inkscape:window-maximized="1" />
  <metadata
     id="metadata4903">
    <rdf:RDF>
      <cc:Work
         rdf:about="">
        <dc:format>image/svg+xml</dc:format>
        <dc:type
           rdf:resource="http://purl.org/dc/dcmitype/StillImage" />
      </cc:Work>
    </rdf:RDF>
  </metadata>
  <g
     inkscape:label="Ebene 1"
     inkscape:groupmode="layer"
     id="layer1"
     transform="translate(-327.11828,-490.91883)">
    <g
       id="g4919"
       style="fill:#000000;fill-opacity:0.66312058">
      <g
         id="g5712"
         style="opacity:0.8;fill:#ffffff;fill-opacity:1">
        <g
           id="g5718"
           transform="translate(4,-3.9999969)">
          <g
             transform="matrix(0.96416519,0,0,-0.96416519,348.83128,512.31976)"
             id="g330"
             style="fill:#ffffff;fill-opacity:1">
            <path
               inkscape:connector-curvature="0"
               id="path332"
               style="fill:#ffffff;fill-opacity:1;fill-rule:nonzero;stroke:none"
               d="m 0,0 c 0.021,-0.169 0.035,-0.341 0.035,-0.518 0,-2.433 -1.98,-4.414 -4.414,-4.414 l -11.922,0 0,3.989 -6.219,-5.026 6.219,-5.024 0,3.724 11.922,0 c 3.723,0 6.751,3.028 6.751,6.751 0,0.752 -0.127,1.494 -0.376,2.208 L 0,0 z" />
          </g>
          <g
             transform="matrix(1.25,0,0,-1.25,330.08328,509.03627)"
             id="g334"
             style="fill:#ffffff;fill-opacity:1">
            <path
               inkscape:connector-curvature="0"
               id="path336"
               style="fill:#ffffff;fill-opacity:1;fill-rule:nonzero;stroke:none"
               d="m -0.54247363,-0.38650102 c -0.0161973,0.13034989 -0.0262242,0.263785 -0.0262242,0.399534 0,1.87734702 1.52794762,3.40529462 3.40452333,3.40529462 l 9.1954525,0 0,-3.07672032 4.796722,3.87578842 -4.796722,3.8765596 0,-2.8730968 -9.1954525,0 C -0.03495746,5.2208585 -2.372,2.8845872 -2.372,0.01303298 -2.372,-0.5662142 -2.2748161,-1.1377484 -2.0812195,-1.69 l 1.53874587,1.30349898 z" />
          </g>
        </g>
      </g>
    </g>
  </g>
</svg>
