<?xml version="1.0" encoding="UTF-8" standalone="no"?>
<!-- Created with Inkscape (http://www.inkscape.org/) -->

<svg
   xmlns:dc="http://purl.org/dc/elements/1.1/"
   xmlns:cc="http://creativecommons.org/ns#"
   xmlns:rdf="http://www.w3.org/1999/02/22-rdf-syntax-ns#"
   xmlns:svg="http://www.w3.org/2000/svg"
   xmlns="http://www.w3.org/2000/svg"
   xmlns:sodipodi="http://sodipodi.sourceforge.net/DTD/sodipodi-0.dtd"
   xmlns:inkscape="http://www.inkscape.org/namespaces/inkscape"
   id="svg2"
   version="1.1"
   inkscape:version="0.48.4 r9939"
   width="1024"
   height="576"
   sodipodi:docname="Odysseyetwasbereinigt.svg">
  <metadata
     id="metadata8">
    <rdf:RDF>
      <cc:Work
         rdf:about="">
        <dc:format>image/svg+xml</dc:format>
        <dc:type
           rdf:resource="http://purl.org/dc/dcmitype/StillImage" />
      </cc:Work>
    </rdf:RDF>
  </metadata>
  <defs
     id="defs6" />
  <sodipodi:namedview
     pagecolor="#ffffff"
     bordercolor="#666666"
     borderopacity="1"
     objecttolerance="10"
     gridtolerance="10"
     guidetolerance="10"
     inkscape:pageopacity="0"
     inkscape:pageshadow="2"
     inkscape:window-width="1682"
     inkscape:window-height="1028"
     id="namedview4"
     showgrid="false"
     inkscape:zoom="0.73242187"
     inkscape:cx="482.62657"
     inkscape:cy="452.41677"
     inkscape:window-x="-8"
     inkscape:window-y="-8"
     inkscape:window-maximized="1"
     inkscape:current-layer="svg2" />
  <path
     style="font-size:medium;font-style:normal;font-variant:normal;font-weight:normal;font-stretch:normal;text-indent:0;text-align:start;text-decoration:none;line-height:normal;letter-spacing:normal;word-spacing:normal;text-transform:none;direction:ltr;block-progression:tb;writing-mode:lr-tb;text-anchor:start;baseline-shift:baseline;color:#000000;fill-opacity:1;fill-rule:nonzero;stroke:none;stroke-width:1;marker:none;visibility:visible;display:inline;overflow:visible;enable-background:accumulate;font-family:Sans;-inkscape-font-specification:Sans"
     d="m 293.643,77.79075 -32.7188,2.53125 -19.6557,5.15625 -1.625,0.21875 -0.9375,0.28125 -0.5312,0.8125 -0.2813,1.15625 -0.2187,3.28125 -0.3438,3.25 -0.8437,1.1875 -13.3624,-9.519982 -13.3624,-9.519982 -13.3624,-9.519982 -13.00036,-9.821681 c -1.5373,-1.035857 -3.13279,-2.32231 -4.97394,-2.805873 -1.41166,-0.37076 -3.43846,-1.116705 -4.3786,-2.94e-4 -0.87164,1.035064 -0.0102,2.843039 0.6911,4.000294 1.06973,1.765141 4.92113,3.758048 4.92113,3.758048 l 9.02424,6.171639 13.94538,9.929688 13.94537,9.929687 13.94538,9.929688 4.0625,3.09375 1.625,0.96875 0.625,0.25 0.1875,0 0,0.28125 -0.5,2.125 -1.7813,10.53125 -1.4062,14.28125 -1.4688,3.34375 -1,-0.0625 -65.8127,-37.0937 -12.5625,-6.6875 c -2.5521,-1.479167 -5.1042,-2.958333 -7.6563,-4.4375 -0.6979,-0.177083 -1.3958,-0.354167 -2.0937,-0.53125 -0.26043,0.104167 -0.52087,0.208333 -0.7813,0.3125 -0.0937,0.270833 -0.18747,0.541667 -0.2812,0.8125 0.0833,0.208333 0.16667,0.416667 0.25,0.625 0.16667,0.197917 0.33333,0.395833 0.5,0.59375 0.5729,0.520833 1.1458,1.041667 1.7187,1.5625 1.76043,1.34375 3.52087,2.6875 5.2813,4.03125 l 77.3762,50.4686 2.9375,1.5625 0.3128,13.34375 -2.2813,0.34375 -3.3125,0.625 -2.4687,1.15625 -2.6875,1.25 -4.5,1.25 -4,1.1875 -4.7188,1.34375 -4.25,0.875 -13.6875,2.0625 -19.875,4.0625 -9.2187,2.78125 -2.7813,1.15625 -22.0942,9.125 -0.094,1.125 0.2812,1.4375 1.1563,3.375 1.4375,2.90625 5.813,13.03125 2.0312,2.9375 2.0313,3.25 15.5315,21.71875 3.8755,6.46875 1.5625,2.03125 3.6255,4.625 1.9062,5.15625 0.5625,3.78125 3.2813,1.65625 2.8437,2.40625 170.6254,83.03135 6.2819,10.5625 11.375,1 19.5313,1.4375 22.6563,1.25 10.9062,0.0937 51.4374,25.93745 4.3125,2.21875 4.5312,1.90625 1.2351,0.43966 2.9065,1.8438 0.2337,1.62284 0.5626,1.78125 0.5312,1.0625 -0.125,0.0937 -1.8125,0.40625 -4.2187,0.53125 -9.0626,-1.03125 -11.1562,-1.59375 -5.0625,-0.375 -6.0002,-2.875 -4.9375,-1.67569 -10.6562,-1.07431 -11.25,1.40625 -26.375,3.2187 -7,-0.75 -4.7188,-0.0625 -15.3438,3.65625 -9.3437,2.03125 -3.5625,1.03125 -14.4062,1.6875 -7.3438,5.15625 -17.25,9.15625 -11.5312,4.46875 -9.0938,10.21875 -2.4062,3.125 -0.2188,0.3125 0.2188,0.28125 2.0624,2.6875 1.875,1.90625 3.2492,4.90625 10.25,4.84375 2.9372,2.5312 10.1562,3.21875 14.5625,4.21875 33.7502,11.0625 27.125,7.125 11.125,3.15625 3.8125,0.875 19.0947,5.9063 32.7195,3.37503 c 0,0 58.53186,12.79142 87.7199,9.25007 0.7916,-0.096 1.55261,-0.42584 2.25,-0.8125 0.81103,-0.44966 1.53142,-1.06346 2.1876,-1.71875 0.61931,-0.61847 1.03719,-1.41401 1.625,-2.0625 1.97908,-2.18339 4.10623,-4.24436 6.375,-6.12495 0.64978,-0.5386 1.34621,-1.02223 2.0624,-1.46875 3.76935,-2.35006 7.5552,-4.79658 11.719,-6.3437 0.95955,-0.35653 1.98228,-0.54624 3,-0.65625 0.82851,-0.0896 1.70344,-0.24481 2.5,0 6.93211,2.13046 11.7971,8.4633 18.0011,12.21875 1.11233,0.67332 2.25088,1.31216 3.4375,1.84375 1.27512,0.57124 2.63901,0.92158 3.9375,1.4375 5.21674,2.07271 9.97568,5.50119 15.469,6.65615 1.25386,0.26362 2.57349,0.19919 3.8437,0.0312 3.54771,-0.46921 7.02,-1.54856 10.3437,-2.875 1.40226,-0.55962 2.62234,-1.50728 4,-2.125 1.09473,-0.49086 2.20692,-0.97703 3.3752,-1.25 1.07091,-0.25022 2.27046,0.0894 3.2813,-0.34375 1.27011,-0.54429 2.27336,-1.62456 3.1563,-2.6875 1.92604,-2.31871 3.17382,-5.13685 4.5,-7.84375 1.56595,-3.19629 2.50968,-6.67211 4.0621,-9.875 0.58384,-1.20455 0.82744,-2.80064 1.9688,-3.5 3.89356,-2.38574 9.12291,-0.43556 13.6875,-0.5625 3.58233,-0.0996 7.32139,-1.19914 10.75,-0.15625 6.63992,2.01968 11.53729,7.72608 17.1241,11.84375 1.23627,0.91118 2.24892,2.16182 3.625,2.84375 1.81332,0.8986 3.89789,1.09926 5.875,1.53125 3.9686,0.86713 7.99575,1.44113 12,2.125 2.40377,0.41053 4.9044,0.41897 7.2187,1.1875 3.95283,1.31266 7.32286,3.98106 11.0936,5.7501 1.50454,0.70585 2.94101,1.76379 4.5938,1.9375 1.31859,0.13858 2.66901,-0.27331 3.9062,-0.75 1.21701,-0.46892 2.18989,-1.42396 3.3441,-2.03125 1.01089,-0.53189 2.12925,-0.84654 3.125,-1.40625 0.947,-0.53231 1.75449,-1.28711 2.6874,-1.84375 1.09613,-0.65402 2.25365,-1.20102 3.406,-1.74995 1.28429,-0.61179 2.68318,-0.99233 3.9063,-1.71875 2.97553,-1.76718 5.60177,-4.07917 8.2187,-6.34375 2.08339,-1.80288 3.43359,-4.60089 5.9377,-5.74995 4.16403,-1.91074 9.12776,-0.80411 13.6875,-1.25 18.59523,-1.8184 55.7496,-5.8125 55.7496,-5.8125 0,0 19.46609,0.0613 29.1875,-0.34375 7.28314,-0.30347 14.52689,-1.32557 21.8125,-1.5625 3.20671,-0.10428 7.25586,2.22606 9.625,0.0625 13.90997,-12.70291 6.32681,-37.54106 4.7502,-56.31245 -0.469,-5.58405 -2.89977,-10.8275 -4.1875,-16.28125 -1.28549,-5.44428 -2.09058,-11.00095 -3.5312,-16.40625 -0.52939,-1.98631 -0.80323,-4.12086 -1.875,-5.875 -4.42017,-7.23436 -10.24576,-14.58117 -18.031,-17.93735 -29.69674,-12.80214 -96.9687,-3.0313 -96.9687,-3.0313 l -56.1859,-41.15625 -1.9062,-15.125 -2.8438,-28.9375 0.2188,-3.15625 1.0625,-0.875 1.4687,-1.75 -0.5624,-2.125 -3.5938,-2.3125 -4.1562,0.96875 -1.2813,3.125 0.25,7.625 0.5625,6.90625 0.5312,3.90625 -0.1874,0.71875 -1.25,0.875 -5.2188,1.03125 -1.4375,0.5 -0.6875,1.84375 0,11.03125 0,9.71875 -0.2812,2.15625 -0.094,0.34375 -5.1875,-1.84375 -5.5937,-3.65625 -3.9376,-2.34375 -7.0937,-1.34375 -29.3753,-12.25 -16.6563,-3.5625 -15.9062,-1.9375 -16.5936,-3.68745 -5.5937,-1 -11.625,-1.3125 -12.8125,-5.6875 -197.7806,-146.4065 -12.75,-5.90625 -6.3438,-6.90625 -24.9373,-13.125 -3.4063,-2.46875 -3.375,-2.65625 -2.6562,-1.3125 m -0.1362,0.99995 2.2188,1.15625 3.25,2.5625 3.5937,2.59375 24.8127,13.0001 6.0625,6.53125 13.6563,6.53125 197.1844,146.1876 13.375,5.90625 11.5,1.3125 5.5313,0.96875 16.531,3.68755 16.1874,1.96875 16.2188,3.46875 29.6868,12.3125 6.9063,1.3125 9.375,5.96875 5.75,1.96875 0.6874,-0.40625 0.2813,-0.6875 0.3125,-2.375 0,-9.8125 -0.031,-10.875 0.4062,-1.25 0.8125,-0.21875 5.5937,-1.125 1.5938,-1.15625 0.375,-1.59375 -0.5,-3.75 -0.5938,-6.875 -0.2187,-7.5 0.9063,-2.40625 3.3437,-0.75 2.9375,1.84375 0.4375,1.34375 -1.0937,1.21875 -1.3438,1.25 -0.3438,3.59375 1.6876,16.875 1.1877,12.15625 1.9063,15.15625 57.2194,42.00005 c 0,0 67.31414,-9.9133 96.9379,3.0312 7.42466,3.24431 12.87316,10.37717 17.0628,17.31245 1.0459,1.73132 1.32154,3.82712 1.8438,5.78125 1.43383,5.36496 2.25108,10.87755 3.5312,16.28125 1.31155,5.53638 3.74652,10.86396 4.25,16.53125 1.62406,18.28087 9.39877,42.46547 -4.094,54.9062 -2.29751,2.11837 -6.25157,-0.16364 -9.375,-0.0625 -7.29601,0.23626 -14.55018,1.25888 -21.8437,1.56245 -9.71103,0.40419 -29.1563,0.34375 -29.1563,0.34375 0,0 -37.21811,3.9888 -55.8444,5.8125 -4.53904,0.44442 -9.45381,-0.59433 -13.625,1.25 -2.73756,1.21044 -4.33209,4.13757 -6.6243,6.06245 -2.57679,2.16386 -5.11224,4.42912 -8,6.15625 -1.15644,0.69165 -2.472,1.07483 -3.6876,1.65625 -1.28603,0.61511 -2.58721,1.2091 -3.8127,1.9374 -0.86934,0.51665 -1.61803,1.22398 -2.5,1.71875 -0.93536,0.52472 -1.98709,0.81573 -2.9376,1.3125 -1.19708,0.62563 -2.20756,1.61163 -3.4693,2.09375 -1.09923,0.42003 -2.29942,0.78861 -3.4687,0.65625 -1.44612,-0.16369 -2.78458,-0.94949 -4,-1.75 -0.56009,-0.36889 -0.91054,-1.00335 -1.4688,-1.375 -3.08906,-2.05644 -6.60104,-3.49457 -10.155,-4.56255 -2.29445,-0.68949 -4.73231,-0.75221 -7.0938,-1.15625 -4.01594,-0.68712 -8.04964,-1.29191 -12.0312,-2.15625 -1.89121,-0.41056 -3.89052,-0.57913 -5.625,-1.4375 -1.24957,-0.6184 -2.15809,-1.76777 -3.2813,-2.59375 -5.80268,-4.26714 -10.94617,-10.11135 -17.8432,-12.18755 -3.45158,-1.03902 -7.21315,0.34848 -10.8126,0.15625 -2.68098,-0.14318 -5.31537,-1.13402 -7.99537,-0.9735 -2.14298,0.12836 -4.57722,0.19616 -6.25463,1.536 -0.0728,0.0582 -0.0812,0.16778 -0.125,0.25 -0.67566,1.26796 -1.49809,2.45724 -2.125,3.75 -1.57584,3.24958 -2.50591,6.78768 -4.0941,10.03125 -1.27443,2.60278 -2.49304,5.30108 -4.3437,7.53125 -0.79728,0.96077 -1.69702,1.94391 -2.8438,2.4375 -0.82735,0.3561 -1.80757,0.0888 -2.6875,0.28125 -1.39655,0.30544 -2.75077,0.80616 -4.0623,1.37495 -1.35535,0.58779 -2.53438,1.54551 -3.9062,2.09375 -3.21021,1.28295 -6.574,2.28751 -10,2.75 -1.16652,0.15747 -2.3785,0.23795 -3.5313,0 -5.48793,-1.13278 -10.22875,-4.58857 -15.4369,-6.65635 -1.2465,-0.49489 -2.55626,-0.82891 -3.7812,-1.375 -1.13218,-0.50474 -2.21867,-1.11171 -3.2813,-1.75 -6.33797,-3.80706 -11.34767,-10.17864 -18.4074,-12.37495 -0.87534,-0.27232 -1.83919,-0.13515 -2.75,-0.0312 -1.18227,0.13493 -2.36244,0.40538 -3.4687,0.84375 -4.88753,1.93676 -9.54771,4.58097 -13.7187,7.78125 -3.08559,2.36749 -5.28713,5.72141 -8.1875,8.3125 -0.6418,0.57336 -1.28222,1.16986 -2.0312,1.59375 -0.53372,0.30207 -1.11068,0.57689 -1.7188,0.65625 -29.11807,3.79986 -87.6079,-9.25007 -87.6079,-9.25007 l -32.7968,-3.37498 -18.9682,-5.9063 -3.75,-0.84375 -11.0312,-3.15625 -27.25,-7.125 -33.6252,-11.06255 -14.5938,-4.21875 -10.0624,-3.1875 -3.3438,-2.59375 -9.3438,-4.375 -3.5309,-5.1875 -1.6875,-1.71875 -1.8125,-2.375 2.1562,-2.8125 8.875,-10 11.25,-4.3125 17.625,-9.375 7.125,-5 14.0316,-1.59375 3.8437,-1.09375 9.0938,-2 15.6875,-3.75 3.75,0.0312 7.7187,0.90625 26.1876,-3.21865 11.4687,-1.4375 9.8155,1.51095 11.3412,4.1453 5.2812,0.375 10.8438,1.5625 9.5,1.03125 4.2187,-0.53125 2.125,-0.46875 0.5625,-0.5 0.094,-0.71875 -0.5938,-1.3125 -0.4688,-1.4375 -0.2387,-2.29406 -5.2448,-2.51623 -3.985,-1.78341 -4.25,-2.1875 -51.8748,-26.0624 -10.9687,-0.0937 -22.5,-1.21875 -19.6876,-1.46875 -11,-0.9375 -6.4688,-10.62495 -168.6855,-82.6561 -4.9688,-2.7812 -2.4375,-1.21875 -0.4375,-2.96875 -2.0625,-6 -3.7807,-4.74995 -1.3438,-1.78125 -3.937,-6.5937 -15.4372,-21.56245 -2.1563,-3.4375 -1.9375,-2.8125 -5.8425,-13.09375 -1.375,-2.75 -1.0937,-3.21875 -0.25,-1.28125 21.6567,-9.28115 2.625,-1.09375 9.1563,-2.78125 19.6875,-4 13.9062,-2.09375 4.125,-0.875 4.9683,-1.4062 3.8125,-1.125 4.5937,-1.28125 3,-1.4375 2.125,-0.96875 3.0938,-0.5625 3.2565,-0.49158 -0.6003,-14.85217 -3.3437,-1.84375 -13.0978,-8.83828 -2.2091,-1.74352 -2.1628,-1.62932 c 0,0 -56.7546,-36.26773 -59.6551,-38.16388 -1.73957,-1.3125 -3.47913,-2.625 -5.2187,-3.9375 -0.5521,-0.5 -1.1042,-1 -1.6563,-1.5 -0.1354,-0.15625 -0.2708,-0.3125 -0.4062,-0.46875 -0.0207,-0.02083 -0.0413,-0.04167 -0.062,-0.0625 0,-0.03125 0,-0.0625 0,-0.09375 0.0417,-0.01042 0.0833,-0.02083 0.125,-0.03125 0.54167,0.15625 1.08333,0.3125 1.625,0.46875 2.5,1.447917 5,2.895833 7.5,4.34375 l 12.8125,6.78125 65.626,37.00005 1.9062,0.15625 2.0625,-4.21875 1.4063,-14.21875 1.7187,-10.375 0.5625,-2.3125 0,-0.78125 -0.2187,-0.40625 -0.625,-0.125 -0.062,-0.0312 -0.4688,-0.1875 -1.5,-0.875 -4,-3.0625 -13.5015,-9.750562 -13.5015,-9.750563 -13.5015,-9.750562 -5.04877,-3.610288 -8.45273,-6.140275 c -0.61412,-0.44611 -1.19351,-1.606673 -0.6862,-2.171291 0.62954,-0.700663 1.90479,0.186762 2.7699,0.559375 5.36569,2.311074 14.32412,10.09975 14.32412,10.09975 l 14.32413,10.09975 14.32412,10.099749 14.32413,10.09975 1.7476,-2.409833 0.4062,-3.5625 0.2188,-3.125 0.2187,-1 0.094,-0.28125 0.625,-0.125 1.5313,-0.21875 19.875,-5.1875 32.125,-2.53125 12.9371,2.3125 m -15.2531,6.21815 -4.9687,0.28125 c -5.63754,0.319109 -16.625,3.25 -16.625,3.25 l -17.75,5.03125 -4.5625,2.09375 -2.0937,2.15625 -0.2188,2.15625 1.1563,1.375 4.625,-0.5625 15.0624,-4.375 c 0,0 5.57168,-1.35377 8.4063,-1.75 l 2.9063,-0.40625 0.9374,-0.03125 0.4063,0.03125 0.5937,0.53125 0.3438,1.84375 -0.2812,11.4375 -0.25,11.84375 0.5312,2.34375 1.125,1.28125 3.0625,1.34375 1.1875,-0.65625 0.9375,-1.4375 0.7813,-3.21875 0.375,-4.75 1.3124,-14.65625 1.5,-7.59375 2.2188,-3.25 1.75,-1.84375 0.4375,-0.8125 0.062,-0.4375 -0.2188,-0.46875 -2.75,-0.75 z m -0.031,1 1.9375,0.40625 -0.2813,0.46875 -1.5624,1.6875 -2.5,3.6875 -1.5626,7.78125 -1.3124,14.78125 -0.3438,4.59375 -0.6875,2.90625 -0.8125,1.21875 -0.5625,0.34375 -2.3437,-1.15625 -0.8438,-0.90625 -0.4062,-1.96875 0.25,-11.71875 0.2812,-11.5625 -0.4688,-2.25 -1.125,-1 -0.75,-0.09375 -1.0312,0.0625 -2.9688,0.40625 c -2.85593,0.390804 -8.4687,1.75 -8.4687,1.75 l -15.25,4.4375 -3.8125,0.5625 -0.5937,-0.71875 0.1875,-1.53125 1.7187,-1.6875 4.3438,-2 17.6249,-5 c 0,0 10.92695,-2.891223 16.5313,-3.21875 z m -46.3753,20 -0.875,0.28125 -0.625,0.84375 -0.875,3.40625 -1.6562,17.90625 -1.625,22.34375 -0.2188,6.96875 0.3438,0.71875 0.625,0.40625 1.5312,-0.0625 2.25,-1.125 1.2188,-2.59375 0.4062,-2.875 0.5938,-5.53125 1.4375,-15.90625 1.0312,-20.40625 -1.0937,-3.5 z m 0,1 1.7188,0.53125 0.8437,2.9375 -1.0312,20.25 -1.4375,15.875 -0.5938,5.5 -0.4062,2.78125 -0.9375,2.15625 -1.6563,0.8125 -1.1562,0.0625 -0.125,-0.0625 -0.125,-0.34375 0.2187,-6.625 1.6563,-22.34375 1.6562,-17.84375 0.7813,-3.125 0.3437,-0.5 z m -89.3747,67.68725 0.031,0.15625 -0.031,-0.0937 0,-0.0625 z M 897.3619,465.7904 c 0,0 0.15615,0.46322 0,0.46875 -0.14611,0.005 -0.0819,-0.30045 -0.031,-0.4375 0.005,-0.0137 0.0254,-0.0177 0.031,-0.0312 10e-6,-2e-5 0,-5e-5 0,-5e-5 z m -526.25,0.0312 0.031,0.0312 -0.031,0.1875 0,-0.21875 z m 119.125,24.9375 0.031,0.40625 -0.062,0.0625 z"
     inkscape:connector-curvature="0"
     sodipodi:nodetypes="ccccccccccccccaaacccccccccccccccccccccccccccccccccccccccccccccccccccccccccccccccccccccccccccccccccccccccccccccccccccccccccccaaaaaaaaaaaaaaaaaaaaaaaaaaaaaaaaaaaaaaaacaaaaaaaacccccccccccccccccccccccccccccccccccccccccccccccccccccccccccccccccccccccccccccccccccaaaaaaaacaaaaaaaaaaaaaaaaaaaaaaaaaaaaaaaaaaaaaaaaaccccccccccccccccccccccccccccccccccccccccccccccccccccccccccccccccccccccccccccccccccccccccccccccccccccccccccccsaacccccccccccccccsccccccccscccccccccccccccccccccccccccccccccccccccccccsccccccccsccccccccccccccccccccccccccccccccccccccccccaaaaaccccccccc" />
</svg>
